<?xml version="1.0" standalone="no"?>
<!DOCTYPE svg PUBLIC "-//W3C//DTD SVG 20010904//EN"
 "http://www.w3.org/TR/2001/REC-SVG-20010904/DTD/svg10.dtd">
<svg version="1.0" xmlns="http://www.w3.org/2000/svg"
 width="300.000000pt" height="300.000000pt" viewBox="0 0 300.000000 300.000000"
 preserveAspectRatio="xMidYMid meet">
<metadata>
Created by potrace 1.11, written by Peter Selinger 2001-2013
</metadata>
<g transform="translate(0.000000,300.000000) scale(0.100000,-0.100000)"
fill="#000000" stroke="none">
<path d="M1524 2983 c-97 -89 -205 -277 -231 -403 -19 -93 0 -223 48 -329 34
-74 133 -208 192 -261 l40 -35 39 45 c141 159 220 347 211 500 -8 145 -104
331 -240 463 -38 36 -40 37 -59 20z"/>
<path d="M939 2728 c-30 -139 -7 -241 72 -317 45 -43 148 -101 180 -101 22 0
42 80 42 171 0 119 -66 216 -188 274 -92 43 -90 44 -106 -27z"/>
<path d="M2085 2668 c-54 -15 -137 -69 -167 -110 -47 -63 -66 -175 -44 -262 6
-24 7 -24 53 -12 151 40 232 134 237 272 5 127 1 132 -79 112z"/>
<path d="M2220 2481 c-141 -138 -161 -273 -67 -458 15 -28 31 -54 37 -58 16
-10 108 63 149 119 72 99 89 167 68 276 -14 73 -75 190 -99 190 -10 0 -50 -31
-88 -69z"/>
<path d="M2597 2475 c-34 -12 -54 -25 -92 -60 -6 -5 -25 -31 -43 -56 -38 -56
-34 -61 59 -85 119 -31 206 4 277 111 30 46 31 51 15 63 -45 33 -158 47 -216
27z"/>
<path d="M615 2336 c-66 -44 -132 -117 -158 -174 -40 -88 -24 -246 37 -346
l21 -36 45 30 c193 128 244 296 150 498 -16 34 -33 62 -37 62 -5 0 -31 -15
-58 -34z"/>
<path d="M966 2269 c-46 -11 -161 -66 -176 -84 -8 -9 2 -27 34 -68 91 -111
178 -159 288 -158 84 0 190 39 267 97 6 5 -51 76 -98 122 -87 83 -208 118
-315 91z"/>
<path d="M1998 2204 c-32 -7 -88 -29 -125 -48 -171 -86 -237 -203 -229 -411 5
-127 9 -138 50 -129 105 22 221 80 280 139 90 90 128 242 102 407 -4 26 -10
49 -14 51 -4 3 -33 -2 -64 -9z"/>
<path d="M2618 2100 c-80 -21 -138 -54 -194 -110 -66 -65 -138 -216 -150 -316
-6 -41 -5 -42 28 -47 18 -3 85 -4 148 -3 160 5 241 36 329 127 62 65 130 209
146 313 5 29 3 35 -17 42 -48 15 -222 12 -290 -6z"/>
<path d="M761 1947 c-28 -91 -31 -238 -6 -324 42 -146 162 -255 346 -313 71
-23 73 -22 84 49 4 25 9 57 12 71 18 116 -11 250 -74 342 -48 71 -185 158
-300 191 l-52 16 -10 -32z"/>
<path d="M1326 1937 c-58 -71 -80 -131 -81 -217 0 -89 28 -155 98 -233 l44
-48 35 39 c19 21 48 65 64 98 24 49 29 71 29 134 0 62 -5 84 -28 130 -29 57
-98 140 -116 140 -5 0 -26 -19 -45 -43z"/>
<path d="M1560 1905 c0 -8 4 -15 10 -15 5 0 7 7 4 15 -4 8 -8 15 -10 15 -2 0
-4 -7 -4 -15z"/>
<path d="M1555 1827 c-4 -28 -9 -65 -10 -82 -10 -83 -76 -615 -81 -650 l-6
-39 -25 64 c-14 36 -38 99 -53 140 -151 397 -164 428 -136 310 3 -14 8 -36 10
-50 5 -30 61 -298 74 -357 6 -24 8 -43 5 -43 -3 0 -66 32 -141 71 -76 40 -175
92 -222 116 -47 24 -76 37 -65 29 11 -9 136 -100 278 -203 l258 -188 -6 -66
c-3 -37 -7 -75 -9 -85 -2 -11 -7 -48 -11 -84 -3 -36 -8 -76 -10 -90 -2 -14 -9
-63 -15 -110 -6 -47 -12 -98 -15 -115 -2 -16 -7 -57 -10 -90 -4 -33 -13 -107
-21 -164 -21 -154 -26 -141 61 -141 64 0 75 2 76 18 0 9 1 83 1 164 l0 148 89
0 89 0 0 -165 0 -165 75 0 75 0 -4 28 c-3 15 -10 71 -16 126 -7 54 -13 106
-15 115 -1 9 -6 43 -9 76 -4 33 -9 71 -11 85 -2 14 -6 52 -10 85 -3 33 -8 67
-10 75 -2 8 -6 42 -9 75 -3 33 -8 69 -10 80 -2 11 -7 49 -11 85 l-6 65 152
210 c219 302 383 531 376 525 -3 -3 -78 -76 -165 -162 -88 -87 -162 -158 -164
-158 -3 0 -4 24 -2 53 15 257 12 296 -10 152 -4 -22 -15 -91 -26 -152 l-20
-112 -83 -80 c-45 -44 -83 -79 -84 -78 -1 1 -4 29 -7 62 -4 33 -9 67 -11 75
-2 8 -6 42 -9 75 -4 33 -8 71 -10 85 -3 14 -8 52 -11 85 -3 33 -8 69 -10 80
-3 11 -7 45 -10 75 -3 30 -7 69 -9 85 -2 17 -7 58 -11 93 -4 34 -10 64 -15 67
-4 2 -11 -19 -15 -48z"/>
<path d="M2074 1818 c-27 -19 -62 -54 -78 -81 -25 -41 -29 -58 -28 -108 1 -59
32 -149 50 -149 12 0 93 59 110 79 36 44 55 104 49 161 -7 59 -31 130 -46 130
-5 0 -30 -15 -57 -32z"/>
<path d="M340 1713 c-81 -10 -255 -65 -279 -88 -2 -2 14 -35 35 -72 46 -84
171 -211 237 -241 130 -60 282 -53 454 23 29 13 53 27 53 31 0 17 -82 143
-124 190 -100 113 -244 173 -376 157z"/>
<path d="M2315 1533 c-71 -20 -145 -54 -145 -68 0 -23 97 -160 139 -197 24
-21 68 -50 100 -64 98 -47 266 -33 393 32 l29 15 -27 48 c-61 114 -167 210
-259 237 -63 18 -160 17 -230 -3z"/>
<path d="M1749 1508 c-58 -45 -80 -78 -86 -129 -5 -43 8 -110 26 -138 13 -19
45 -6 90 39 46 45 64 92 57 148 -4 39 -31 112 -40 112 -2 0 -24 -15 -47 -32z"/>
<path d="M2081 1364 c-89 -113 -84 -234 16 -345 34 -38 37 -39 54 -23 11 10
32 44 49 77 50 100 38 185 -40 280 -37 44 -52 46 -79 11z"/>
<path d="M828 1285 c-125 -33 -187 -108 -191 -232 l-2 -68 43 2 c57 3 133 37
170 76 37 40 62 111 62 180 0 60 -4 63 -82 42z"/>
<path d="M1505 181 c-7 -12 12 -24 25 -16 11 7 4 25 -10 25 -5 0 -11 -4 -15
-9z"/>
</g>
</svg>
